ISO-10303-21;
HEADER;
FILE_DESCRIPTION (( 'STEP AP214' ),
    '1' );
FILE_NAME ('mf-lsmf075_60x.STEP',
    '2023-08-18T04:45:17',
    ( '' ),
    ( '' ),
    'SwSTEP 2.0',
    'SolidWorks 2020',
    '' );
FILE_SCHEMA (( 'AUTOMOTIVE_DESIGN' ));
ENDSEC;

DATA;
#1 = ORIENTED_EDGE ( 'NONE', *, *, #150, .T. ) ;
#2 = PLANE ( 'NONE',  #819 ) ;
#3 = CARTESIAN_POINT ( 'NONE',  ( 0.09999999999999999167, -1.530000000000000027, -2.008392021690037943 ) ) ;
#4 = VECTOR ( 'NONE', #782, 1000.000000000000000 ) ;
#5 = EDGE_CURVE ( 'NONE', #472, #761, #140, .T. ) ;
#6 = ADVANCED_FACE ( 'NONE', ( #144 ), #412, .T. ) ;
#7 = CARTESIAN_POINT ( 'NONE',  ( 7.500000000000000000, -1.500000000000000000, -5.200000000000000178 ) ) ;
#8 = CARTESIAN_POINT ( 'NONE',  ( 0.000000000000000000, 0.000000000000000000, -5.200000000000000178 ) ) ;
#9 = ORIENTED_EDGE ( 'NONE', *, *, #572, .T. ) ;
#10 = VECTOR ( 'NONE', #450, 1000.000000000000000 ) ;
#11 = ORIENTED_EDGE ( 'NONE', *, *, #607, .T. ) ;
#12 = AXIS2_PLACEMENT_3D ( 'NONE', #328, #465, #180 ) ;
#13 = VECTOR ( 'NONE', #731, 1000.000000000000000 ) ;
#14 = CARTESIAN_POINT ( 'NONE',  ( 0.1000000000000000472, -1.530000000000000027, -0.1000000000000000472 ) ) ;
#15 = FILL_AREA_STYLE ('',( #480 ) ) ;
#16 = DIRECTION ( 'NONE',  ( 0.000000000000000000, 0.000000000000000000, -1.000000000000000000 ) ) ;
#17 = ORIENTED_EDGE ( 'NONE', *, *, #492, .F. ) ;
#18 = FACE_OUTER_BOUND ( 'NONE', #833, .T. ) ;
#19 = ORIENTED_EDGE ( 'NONE', *, *, #321, .F. ) ;
#20 = APPLICATION_PROTOCOL_DEFINITION ( 'draft international standard', 'automotive_design', 1998, #122 ) ;
#21 = FACE_OUTER_BOUND ( 'NONE', #840, .T. ) ;
#22 = ORIENTED_EDGE ( 'NONE', *, *, #228, .T. ) ;
#23 = VECTOR ( 'NONE', #845, 1000.000000000000000 ) ;
#24 = PLANE ( 'NONE',  #109 ) ;
#25 = AXIS2_PLACEMENT_3D ( 'NONE', #311, #724, #656 ) ;
#26 = CARTESIAN_POINT ( 'NONE',  ( 0.000000000000000000, 0.000000000000000000, 0.000000000000000000 ) ) ;
#27 = LINE ( 'NONE', #86, #794 ) ;
#28 = CYLINDRICAL_SURFACE ( 'NONE', #509, 1.125000000000000222 ) ;
#29 = DIRECTION ( 'NONE',  ( -0.000000000000000000, 1.000000000000000000, -0.000000000000000000 ) ) ;
#30 = EDGE_CURVE ( 'NONE', #746, #593, #387, .T. ) ;
#31 = PRODUCT_DEFINITION ( 'UNKNOWN', '', #303, #356 ) ;
#32 = DIRECTION ( 'NONE',  ( 0.000000000000000000, 0.000000000000000000, -1.000000000000000000 ) ) ;
#33 = ORIENTED_EDGE ( 'NONE', *, *, #396, .T. ) ;
#34 = CARTESIAN_POINT ( 'NONE',  ( 0.000000000000000000, -1.500000000000000000, -5.200000000000000178 ) ) ;
#35 = CARTESIAN_POINT ( 'NONE',  ( 0.000000000000000000, 0.000000000000000000, -3.725000000000000089 ) ) ;
#36 = ORIENTED_EDGE ( 'NONE', *, *, #458, .F. ) ;
#37 = DIRECTION ( 'NONE',  ( 1.000000000000000000, -0.000000000000000000, 0.000000000000000000 ) ) ;
#38 = EDGE_CURVE ( 'NONE', #331, #468, #461, .T. ) ;
#39 = EDGE_CURVE ( 'NONE', #149, #658, #312, .T. ) ;
#40 = LINE ( 'NONE', #294, #162 ) ;
#41 = VECTOR ( 'NONE', #226, 1000.000000000000000 ) ;
#42 = DIRECTION ( 'NONE',  ( -0.000000000000000000, -1.000000000000000000, -0.000000000000000000 ) ) ;
#43 = PLANE ( 'NONE',  #357 ) ;
#44 = ORIENTED_EDGE ( 'NONE', *, *, #376, .T. ) ;
#45 = VECTOR ( 'NONE', #29, 1000.000000000000000 ) ;
#46 = DIRECTION ( 'NONE',  ( 1.000000000000000000, 0.000000000000000000, 0.000000000000000000 ) ) ;
#47 = CARTESIAN_POINT ( 'NONE',  ( 0.1000000000000000472, -1.530000000000000027, -0.1000000000000000472 ) ) ;
#48 = CARTESIAN_POINT ( 'NONE',  ( 0.000000000000000000, -1.500000000000000000, -2.600000000000000089 ) ) ;
#49 = VECTOR ( 'NONE', #859, 1000.000000000000000 ) ;
#50 = AXIS2_PLACEMENT_3D ( 'NONE', #117, #398, #329 ) ;
#51 = ORIENTED_EDGE ( 'NONE', *, *, #562, .F. ) ;
#52 = LINE ( 'NONE', #870, #119 ) ;
#53 = DIRECTION ( 'NONE',  ( -1.000000000000000000, -0.000000000000000000, -0.000000000000000000 ) ) ;
#54 = LINE ( 'NONE', #538, #698 ) ;
#55 = VERTEX_POINT ( 'NONE', #313 ) ;
#56 = EDGE_CURVE ( 'NONE', #383, #149, #605, .T. ) ;
#57 = ORIENTED_EDGE ( 'NONE', *, *, #616, .F. ) ;
#58 = ADVANCED_FACE ( 'NONE', ( #318 ), #725, .T. ) ;
#59 = DIRECTION ( 'NONE',  ( -1.000000000000000000, 0.000000000000000000, 0.000000000000000000 ) ) ;
#60 = ORIENTED_EDGE ( 'NONE', *, *, #589, .T. ) ;
#61 = ORIENTED_EDGE ( 'NONE', *, *, #734, .F. ) ;
#62 = LINE ( 'NONE', #176, #151 ) ;
#63 = FACE_OUTER_BOUND ( 'NONE', #121, .T. ) ;
#64 = VECTOR ( 'NONE', #730, 1000.000000000000000 ) ;
#65 = ORIENTED_EDGE ( 'NONE', *, *, #159, .T. ) ;
#66 = DIRECTION ( 'NONE',  ( 0.000000000000000000, -1.000000000000000000, 0.000000000000000000 ) ) ;
#67 = LINE ( 'NONE', #668, #545 ) ;
#68 = EDGE_CURVE ( 'NONE', #97, #678, #431, .T. ) ;
#69 = UNCERTAINTY_MEASURE_WITH_UNIT (LENGTH_MEASURE( 1.000000000000000082E-05 ), #756, 'distance_accuracy_value', 'NONE');
#70 = ORIENTED_EDGE ( 'NONE', *, *, #242, .F. ) ;
#71 = LINE ( 'NONE', #485, #330 ) ;
#72 = CARTESIAN_POINT ( 'NONE',  ( 7.399999999999998579, -1.530000000000000027, -2.008392021690037943 ) ) ;
#73 = ORIENTED_EDGE ( 'NONE', *, *, #186, .T. ) ;
#74 = COLOUR_RGB ( '',0.7921568627450980005, 0.8196078431372548767, 0.9333333333333333481 ) ;
#75 = EDGE_LOOP ( 'NONE', ( #244, #136, #57, #399 ) ) ;
#76 = CARTESIAN_POINT ( 'NONE',  ( 7.399999999999998579, -1.530000000000000027, -3.191607978309961791 ) ) ;
#77 = LINE ( 'NONE', #494, #552 ) ;
#78 = ORIENTED_EDGE ( 'NONE', *, *, #693, .T. ) ;
#79 = EDGE_CURVE ( 'NONE', #615, #195, #67, .T. ) ;
#80 = DIRECTION ( 'NONE',  ( 0.000000000000000000, 0.000000000000000000, -1.000000000000000000 ) ) ;
#81 = ORIENTED_EDGE ( 'NONE', *, *, #174, .F. ) ;
#82 = DIRECTION ( 'NONE',  ( 0.000000000000000000, 1.000000000000000000, 0.000000000000000000 ) ) ;
#83 = PRESENTATION_STYLE_ASSIGNMENT (( #291 ) ) ;
#84 = CARTESIAN_POINT ( 'NONE',  ( 0.1000000000000000472, -1.530000000000000027, -5.099999999999999645 ) ) ;
#85 = ORIENTED_EDGE ( 'NONE', *, *, #352, .F. ) ;
#86 = CARTESIAN_POINT ( 'NONE',  ( 7.500000000000000000, -1.500000000000000000, 0.000000000000000000 ) ) ;
#87 = VERTEX_POINT ( 'NONE', #596 ) ;
#88 = AXIS2_PLACEMENT_3D ( 'NONE', #286, #406, #554 ) ;
#89 = CARTESIAN_POINT ( 'NONE',  ( 0.000000000000000000, 0.02000000000000005246, -2.000000000000000000 ) ) ;
#90 = VECTOR ( 'NONE', #238, 1000.000000000000000 ) ;
#91 = AXIS2_PLACEMENT_3D ( 'NONE', #415, #531, #810 ) ;
#92 = ADVANCED_FACE ( 'NONE', ( #63 ), #380, .T. ) ;
#93 = DIRECTION ( 'NONE',  ( 0.000000000000000000, 0.000000000000000000, -1.000000000000000000 ) ) ;
#94 = CARTESIAN_POINT ( 'NONE',  ( 7.500000000000000000, -1.500000000000000000, 0.000000000000000000 ) ) ;
#95 = ADVANCED_FACE ( 'NONE', ( #871 ), #194, .F. ) ;
#96 = CARTESIAN_POINT ( 'NONE',  ( 5.999999999999999112, -1.500000000000000000, -0.09999999999999993616 ) ) ;
#97 = VERTEX_POINT ( 'NONE', #3 ) ;
#98 = LINE ( 'NONE', #439, #539 ) ;
#99 = CARTESIAN_POINT ( 'NONE',  ( 7.399999999999999467, -1.530000000000000027, -5.099999999999999645 ) ) ;
#100 = ORIENTED_EDGE ( 'NONE', *, *, #30, .F. ) ;
#101 = DIRECTION ( 'NONE',  ( 0.000000000000000000, 0.000000000000000000, -1.000000000000000000 ) ) ;
#102 = LINE ( 'NONE', #293, #534 ) ;
#103 = STYLED_ITEM ( 'NONE', ( #147 ), #556 ) ;
#104 = DIRECTION ( 'NONE',  ( 0.000000000000000000, 0.000000000000000000, 1.000000000000000000 ) ) ;
#105 = VERTEX_POINT ( 'NONE', #797 ) ;
#106 = LINE ( 'NONE', #231, #638 ) ;
#107 = DIRECTION ( 'NONE',  ( -0.000000000000000000, -1.000000000000000000, -0.000000000000000000 ) ) ;
#108 = VERTEX_POINT ( 'NONE', #657 ) ;
#109 = AXIS2_PLACEMENT_3D ( 'NONE', #749, #156, #481 ) ;
#110 = FACE_OUTER_BOUND ( 'NONE', #200, .T. ) ;
#111 = DIRECTION ( 'NONE',  ( 0.000000000000000000, 0.000000000000000000, -1.000000000000000000 ) ) ;
#112 = CARTESIAN_POINT ( 'NONE',  ( 1.500000000000000000, -1.500000000000000000, -5.099999999999999645 ) ) ;
#113 = ORIENTED_EDGE ( 'NONE', *, *, #435, .T. ) ;
#114 = VECTOR ( 'NONE', #741, 1000.000000000000000 ) ;
#115 = DIRECTION ( 'NONE',  ( 0.000000000000000000, 0.000000000000000000, 1.000000000000000000 ) ) ;
#116 = CARTESIAN_POINT ( 'NONE',  ( 6.000000000000000000, -1.500000000000000000, -5.099999999999999645 ) ) ;
#117 = CARTESIAN_POINT ( 'NONE',  ( 0.000000000000000000, -1.530000000000000027, -2.600000000000000089 ) ) ;
#118 = ORIENTED_EDGE ( 'NONE', *, *, #265, .F. ) ;
#119 = VECTOR ( 'NONE', #316, 1000.000000000000000 ) ;
#120 = EDGE_CURVE ( 'NONE', #87, #747, #267, .T. ) ;
#121 = EDGE_LOOP ( 'NONE', ( #462, #319, #525, #799, #51, #642 ) ) ;
#122 = APPLICATION_CONTEXT ( 'automotive_design' ) ;
#123 = CARTESIAN_POINT ( 'NONE',  ( 7.500000000000000000, -1.500000000000000000, 0.000000000000000000 ) ) ;
#124 = DIRECTION ( 'NONE',  ( 0.000000000000000000, 0.000000000000000000, 1.000000000000000000 ) ) ;
#125 = ORIENTED_EDGE ( 'NONE', *, *, #492, .T. ) ;
#126 = ORIENTED_EDGE ( 'NONE', *, *, #364, .F. ) ;
#127 = AXIS2_PLACEMENT_3D ( 'NONE', #711, #839, #295 ) ;
#128 = FACE_OUTER_BOUND ( 'NONE', #520, .T. ) ;
#129 = DIRECTION ( 'NONE',  ( 0.000000000000000000, 0.000000000000000000, 1.000000000000000000 ) ) ;
#130 = EDGE_CURVE ( 'NONE', #678, #658, #54, .T. ) ;
#131 = ORIENTED_EDGE ( 'NONE', *, *, #562, .T. ) ;
#132 = EDGE_CURVE ( 'NONE', #678, #178, #649, .T. ) ;
#133 = CARTESIAN_POINT ( 'NONE',  ( 0.000000000000000000, -1.500000000000000000, 0.000000000000000000 ) ) ;
#134 = DIRECTION ( 'NONE',  ( 0.000000000000000000, 0.000000000000000000, -1.000000000000000000 ) ) ;
#135 = AXIS2_PLACEMENT_3D ( 'NONE', #332, #82, #400 ) ;
#136 = ORIENTED_EDGE ( 'NONE', *, *, #185, .F. ) ;
#137 = CARTESIAN_POINT ( 'NONE',  ( 7.399999999999999467, -1.530000000000000027, -5.099999999999999645 ) ) ;
#138 = CARTESIAN_POINT ( 'NONE',  ( 5.999999999999999112, -1.530000000000000027, -0.09999999999999993616 ) ) ;
#139 = EDGE_LOOP ( 'NONE', ( #214, #33, #268, #65, #758, #612, #259, #818 ) ) ;
#140 = CIRCLE ( 'NONE', #752, 0.6000000000000003109 ) ;
#141 = ORIENTED_EDGE ( 'NONE', *, *, #817, .F. ) ;
#142 = DIRECTION ( 'NONE',  ( -1.000000000000000000, 0.000000000000000000, -1.734723475976807094E-16 ) ) ;
#143 = DIRECTION ( 'NONE',  ( -0.000000000000000000, -0.000000000000000000, 1.000000000000000000 ) ) ;
#144 = FACE_OUTER_BOUND ( 'NONE', #241, .T. ) ;
#145 = PLANE ( 'NONE',  #341 ) ;
#146 = ORIENTED_EDGE ( 'NONE', *, *, #56, .F. ) ;
#147 = PRESENTATION_STYLE_ASSIGNMENT (( #210 ) ) ;
#148 = LINE ( 'NONE', #421, #438 ) ;
#149 = VERTEX_POINT ( 'NONE', #529 ) ;
#150 = EDGE_CURVE ( 'NONE', #673, #490, #672, .T. ) ;
#151 = VECTOR ( 'NONE', #445, 1000.000000000000000 ) ;
#152 = PRODUCT_CONTEXT ( 'NONE', #122, 'mechanical' ) ;
#153 = DIRECTION ( 'NONE',  ( 0.000000000000000000, 1.000000000000000000, 0.000000000000000000 ) ) ;
#154 = EDGE_LOOP ( 'NONE', ( #553, #315, #805, #254 ) ) ;
#155 = PRODUCT ( 'mf-lsmf075_60x', 'mf-lsmf075_60x', '', ( #152 ) ) ;
#156 = DIRECTION ( 'NONE',  ( 0.000000000000000000, 0.000000000000000000, 1.000000000000000000 ) ) ;
#157 = CIRCLE ( 'NONE', #375, 1.124999999999999334 ) ;
#158 = ORIENTED_EDGE ( 'NONE', *, *, #199, .F. ) ;
#159 = EDGE_CURVE ( 'NONE', #468, #327, #333, .T. ) ;
#160 = PLANE ( 'NONE',  #705 ) ;
#161 = LINE ( 'NONE', #774, #726 ) ;
#162 = VECTOR ( 'NONE', #363, 1000.000000000000000 ) ;
#163 = AXIS2_PLACEMENT_3D ( 'NONE', #251, #855, #660 ) ;
#164 = DIRECTION ( 'NONE',  ( -1.000000000000000000, 0.000000000000000000, -0.000000000000000000 ) ) ;
#165 = AXIS2_PLACEMENT_3D ( 'NONE', #586, #401, #134 ) ;
#166 = ORIENTED_EDGE ( 'NONE', *, *, #651, .F. ) ;
#167 = FACE_OUTER_BOUND ( 'NONE', #287, .T. ) ;
#168 = DIRECTION ( 'NONE',  ( -0.000000000000000000, -0.000000000000000000, 1.000000000000000000 ) ) ;
#169 = ORIENTED_EDGE ( 'NONE', *, *, #130, .F. ) ;
#170 = EDGE_CURVE ( 'NONE', #571, #659, #861, .T. ) ;
#171 = DIRECTION ( 'NONE',  ( 0.000000000000000000, 0.000000000000000000, -1.000000000000000000 ) ) ;
#172 = FACE_OUTER_BOUND ( 'NONE', #555, .T. ) ;
#173 = DIRECTION ( 'NONE',  ( 0.000000000000000000, 0.000000000000000000, -1.000000000000000000 ) ) ;
#174 = EDGE_CURVE ( 'NONE', #673, #232, #518, .T. ) ;
#175 = AXIS2_PLACEMENT_3D ( 'NONE', #205, #342, #679 ) ;
#176 = CARTESIAN_POINT ( 'NONE',  ( 1.500000000000000000, -1.500000000000000000, -0.1000000000000000472 ) ) ;
#177 = LINE ( 'NONE', #116, #775 ) ;
#178 = VERTEX_POINT ( 'NONE', #866 ) ;
#179 = ORIENTED_EDGE ( 'NONE', *, *, #39, .F. ) ;
#180 = DIRECTION ( 'NONE',  ( 0.000000000000000000, 0.000000000000000000, 1.000000000000000000 ) ) ;
#181 = DIRECTION ( 'NONE',  ( 0.000000000000000000, -1.000000000000000000, 0.000000000000000000 ) ) ;
#182 = DIRECTION ( 'NONE',  ( -1.000000000000000000, 0.000000000000000000, 0.000000000000000000 ) ) ;
#183 = ORIENTED_EDGE ( 'NONE', *, *, #800, .T. ) ;
#184 =( GEOMETRIC_REPRESENTATION_CONTEXT ( 3 ) GLOBAL_UNCERTAINTY_ASSIGNED_CONTEXT ( ( #69 ) ) GLOBAL_UNIT_ASSIGNED_CONTEXT ( ( #756, #629, #488 ) ) REPRESENTATION_CONTEXT ( 'NONE', 'WORKASPACE' ) );
#185 = EDGE_CURVE ( 'NONE', #422, #87, #524, .T. ) ;
#186 = EDGE_CURVE ( 'NONE', #105, #858, #771, .T. ) ;
#187 = DIRECTION ( 'NONE',  ( 0.000000000000000000, -1.000000000000000000, 0.000000000000000000 ) ) ;
#188 = DIRECTION ( 'NONE',  ( 1.000000000000000000, 0.000000000000000000, -0.000000000000000000 ) ) ;
#189 = CARTESIAN_POINT ( 'NONE',  ( 1.500000000000000000, -1.530000000000000027, -0.1000000000000000472 ) ) ;
#190 = VERTEX_POINT ( 'NONE', #841 ) ;
#191 = EDGE_LOOP ( 'NONE', ( #829, #389, #713, #61 ) ) ;
#192 = CARTESIAN_POINT ( 'NONE',  ( 0.1000000000000000472, -1.500000000000000000, -5.099999999999999645 ) ) ;
#193 = FACE_OUTER_BOUND ( 'NONE', #139, .T. ) ;
#194 = PLANE ( 'NONE',  #276 ) ;
#195 = VERTEX_POINT ( 'NONE', #831 ) ;
#196 = ORIENTED_EDGE ( 'NONE', *, *, #278, .F. ) ;
#197 = DIRECTION ( 'NONE',  ( -0.000000000000000000, 1.000000000000000000, -0.000000000000000000 ) ) ;
#198 = CARTESIAN_POINT ( 'NONE',  ( 0.1000000000000000472, -1.530000000000000027, -0.1000000000000000472 ) ) ;
#199 = EDGE_CURVE ( 'NONE', #513, #659, #700, .T. ) ;
#200 = EDGE_LOOP ( 'NONE', ( #437, #407, #11, #455 ) ) ;
#201 = PLANE ( 'NONE',  #175 ) ;
#202 = DIRECTION ( 'NONE',  ( -0.000000000000000000, 1.000000000000000000, -0.000000000000000000 ) ) ;
#203 = ORIENTED_EDGE ( 'NONE', *, *, #683, .T. ) ;
#204 = VECTOR ( 'NONE', #753, 1000.000000000000000 ) ;
#205 = CARTESIAN_POINT ( 'NONE',  ( 1.500000000000000000, -1.530000000000000027, -0.1000000000000000472 ) ) ;
#206 = DIRECTION ( 'NONE',  ( 0.000000000000000000, 0.000000000000000000, -1.000000000000000000 ) ) ;
#207 = ORIENTED_EDGE ( 'NONE', *, *, #521, .F. ) ;
#208 = CIRCLE ( 'NONE', #91, 0.6000000000000003109 ) ;
#209 = ORIENTED_EDGE ( 'NONE', *, *, #710, .T. ) ;
#210 = SURFACE_STYLE_USAGE ( .BOTH. , #217 ) ;
#211 = DIRECTION ( 'NONE',  ( 1.000000000000000000, 0.000000000000000000, 0.000000000000000000 ) ) ;
#212 = CARTESIAN_POINT ( 'NONE',  ( 7.500000000000000000, -1.530000000000000027, -2.600000000000000089 ) ) ;
#213 = DIRECTION ( 'NONE',  ( -0.000000000000000000, 1.000000000000000000, -0.000000000000000000 ) ) ;
#214 = ORIENTED_EDGE ( 'NONE', *, *, #762, .F. ) ;
#215 = ADVANCED_FACE ( 'NONE', ( #637 ), #145, .T. ) ;
#216 = STYLED_ITEM ( 'NONE', ( #83 ), #575 ) ;
#217 = SURFACE_SIDE_STYLE ('',( #608 ) ) ;
#218 = PLANE ( 'NONE',  #717 ) ;
#219 = CARTESIAN_POINT ( 'NONE',  ( 0.000000000000000000, -1.500000000000000000, -5.200000000000000178 ) ) ;
#220 = PRODUCT_RELATED_PRODUCT_CATEGORY ( 'part', '', ( #155 ) ) ;
#221 = DIRECTION ( 'NONE',  ( 0.000000000000000000, 0.000000000000000000, -1.000000000000000000 ) ) ;
#222 = CARTESIAN_POINT ( 'NONE',  ( 0.000000000000000000, 0.000000000000000000, -2.600000000000000089 ) ) ;
#223 = ORIENTED_EDGE ( 'NONE', *, *, #762, .T. ) ;
#224 = VECTOR ( 'NONE', #53, 1000.000000000000000 ) ;
#225 =( NAMED_UNIT ( * ) PLANE_ANGLE_UNIT ( ) SI_UNIT ( $, .RADIAN. ) );
#226 = DIRECTION ( 'NONE',  ( -0.000000000000000000, 1.000000000000000000, 0.000000000000000000 ) ) ;
#227 = EDGE_CURVE ( 'NONE', #331, #249, #631, .T. ) ;
#228 = EDGE_CURVE ( 'NONE', #232, #414, #850, .T. ) ;
#229 = CARTESIAN_POINT ( 'NONE',  ( 0.09999999999999999167, -1.530000000000000027, -3.191607978309961791 ) ) ;
#230 = VECTOR ( 'NONE', #542, 1000.000000000000000 ) ;
#231 = CARTESIAN_POINT ( 'NONE',  ( 7.399999999999999467, -1.500000000000000000, -5.099999999999999645 ) ) ;
#232 = VERTEX_POINT ( 'NONE', #345 ) ;
#233 = CARTESIAN_POINT ( 'NONE',  ( 0.000000000000000000, -1.500000000000000000, 0.000000000000000000 ) ) ;
#234 = VECTOR ( 'NONE', #221, 1000.000000000000000 ) ;
#235 = AXIS2_PLACEMENT_3D ( 'NONE', #719, #667, #785 ) ;
#236 = DIRECTION ( 'NONE',  ( -0.000000000000000000, 0.000000000000000000, 1.000000000000000000 ) ) ;
#237 = ORIENTED_EDGE ( 'NONE', *, *, #5, .T. ) ;
#238 = DIRECTION ( 'NONE',  ( -1.000000000000000000, 0.000000000000000000, 0.000000000000000000 ) ) ;
#239 = DIRECTION ( 'NONE',  ( -1.734723475976807094E-16, 0.000000000000000000, 1.000000000000000000 ) ) ;
#240 = CARTESIAN_POINT ( 'NONE',  ( 5.999999999999999112, -1.530000000000000027, -0.09999999999999993616 ) ) ;
#241 = EDGE_LOOP ( 'NONE', ( #126, #36, #754, #60 ) ) ;
#242 = EDGE_CURVE ( 'NONE', #178, #513, #40, .T. ) ;
#243 = CARTESIAN_POINT ( 'NONE',  ( 0.000000000000000000, 0.000000000000000000, -5.200000000000000178 ) ) ;
#244 = ORIENTED_EDGE ( 'NONE', *, *, #694, .T. ) ;
#245 = COLOUR_RGB ( '',0.7921568627450980005, 0.8196078431372548767, 0.9333333333333333481 ) ;
#246 = FACE_OUTER_BOUND ( 'NONE', #685, .T. ) ;
#247 = CARTESIAN_POINT ( 'NONE',  ( 6.000000000000000000, -1.530000000000000027, -5.099999999999999645 ) ) ;
#248 = ADVANCED_FACE ( 'NONE', ( #167 ), #617, .T. ) ;
#249 = VERTEX_POINT ( 'NONE', #370 ) ;
#250 = EDGE_CURVE ( 'NONE', #490, #97, #161, .T. ) ;
#251 = CARTESIAN_POINT ( 'NONE',  ( 0.000000000000000000, 0.02000000000000000042, -2.600000000000000089 ) ) ;
#252 = CARTESIAN_POINT ( 'NONE',  ( 6.000000000000000000, -1.530000000000000027, -5.099999999999999645 ) ) ;
#253 = DIRECTION ( 'NONE',  ( 1.000000000000000000, -0.000000000000000000, -0.000000000000000000 ) ) ;
#254 = ORIENTED_EDGE ( 'NONE', *, *, #768, .T. ) ;
#255 = ORIENTED_EDGE ( 'NONE', *, *, #120, .T. ) ;
#256 = CARTESIAN_POINT ( 'NONE',  ( 6.000000000000000000, -1.530000000000000027, -5.099999999999999645 ) ) ;
#257 = CARTESIAN_POINT ( 'NONE',  ( 0.000000000000000000, -1.530000000000000027, -3.199999999999999734 ) ) ;
#258 = ORIENTED_EDGE ( 'NONE', *, *, #561, .T. ) ;
#259 = ORIENTED_EDGE ( 'NONE', *, *, #364, .T. ) ;
#260 = EDGE_CURVE ( 'NONE', #108, #105, #302, .T. ) ;
#261 = CARTESIAN_POINT ( 'NONE',  ( 0.000000000000000000, 0.02000000000000000042, -3.725000000000000089 ) ) ;
#262 = DIRECTION ( 'NONE',  ( 1.734723475976807341E-16, -0.000000000000000000, -1.000000000000000000 ) ) ;
#263 = ADVANCED_FACE ( 'NONE', ( #18 ), #783, .F. ) ;
#264 = ORIENTED_EDGE ( 'NONE', *, *, #307, .T. ) ;
#265 = EDGE_CURVE ( 'NONE', #519, #618, #441, .T. ) ;
#266 =( LENGTH_UNIT ( ) NAMED_UNIT ( * ) SI_UNIT ( .MILLI., .METRE. ) );
#267 = LINE ( 'NONE', #393, #428 ) ;
#268 = ORIENTED_EDGE ( 'NONE', *, *, #442, .T. ) ;
#269 = VECTOR ( 'NONE', #143, 1000.000000000000000 ) ;
#270 = CARTESIAN_POINT ( 'NONE',  ( 6.000000000000000000, -1.530000000000000027, -5.099999999999999645 ) ) ;
#271 = CARTESIAN_POINT ( 'NONE',  ( 7.500000000000000000, 0.000000000000000000, 0.000000000000000000 ) ) ;
#272 = AXIS2_PLACEMENT_3D ( 'NONE', #634, #367, #173 ) ;
#273 = FACE_OUTER_BOUND ( 'NONE', #484, .T. ) ;
#274 = CARTESIAN_POINT ( 'NONE',  ( 7.399999999999998579, -1.500000000000000000, -3.191607978309961791 ) ) ;
#275 = ORIENTED_EDGE ( 'NONE', *, *, #568, .T. ) ;
#276 = AXIS2_PLACEMENT_3D ( 'NONE', #601, #388, #124 ) ;
#277 = ORIENTED_EDGE ( 'NONE', *, *, #751, .F. ) ;
#278 = EDGE_CURVE ( 'NONE', #761, #426, #576, .T. ) ;
#279 = CARTESIAN_POINT ( 'NONE',  ( 1.500000000000000000, -1.530000000000000027, -5.099999999999999645 ) ) ;
#280 = DIRECTION ( 'NONE',  ( 0.000000000000000000, 1.000000000000000000, 0.000000000000000000 ) ) ;
#281 = EDGE_LOOP ( 'NONE', ( #255, #390, #207, #394 ) ) ;
#282 = CARTESIAN_POINT ( 'NONE',  ( 1.500000000000000000, -1.500000000000000000, -0.1000000000000000472 ) ) ;
#283 = ORIENTED_EDGE ( 'NONE', *, *, #30, .T. ) ;
#284 = AXIS2_PLACEMENT_3D ( 'NONE', #836, #153, #765 ) ;
#285 = SURFACE_SIDE_STYLE ('',( #767 ) ) ;
#286 = CARTESIAN_POINT ( 'NONE',  ( 7.399999999999999467, -1.530000000000000027, -5.099999999999999645 ) ) ;
#287 = EDGE_LOOP ( 'NONE', ( #85, #457, #125, #863, #350, #633 ) ) ;
#288 = EDGE_CURVE ( 'NONE', #593, #778, #483, .T. ) ;
#289 = PLANE ( 'NONE',  #606 ) ;
#290 = EDGE_CURVE ( 'NONE', #735, #472, #567, .T. ) ;
#291 = SURFACE_STYLE_USAGE ( .BOTH. , #285 ) ;
#292 = CARTESIAN_POINT ( 'NONE',  ( 7.500000000000000000, 0.02000000000000005246, -1.999999999999999556 ) ) ;
#293 = CARTESIAN_POINT ( 'NONE',  ( 6.000000000000000000, -1.530000000000000027, -5.099999999999999645 ) ) ;
#294 = CARTESIAN_POINT ( 'NONE',  ( 1.500000000000000000, -1.530000000000000027, -5.099999999999999645 ) ) ;
#295 = DIRECTION ( 'NONE',  ( 0.000000000000000000, 0.000000000000000000, -1.000000000000000000 ) ) ;
#296 = ORIENTED_EDGE ( 'NONE', *, *, #768, .F. ) ;
#297 = LINE ( 'NONE', #708, #477 ) ;
#298 = EDGE_CURVE ( 'NONE', #314, #149, #684, .T. ) ;
#299 = CARTESIAN_POINT ( 'NONE',  ( 7.500000000000000000, 0.000000000000000000, -3.724999999999999201 ) ) ;
#300 = ORIENTED_EDGE ( 'NONE', *, *, #79, .T. ) ;
#301 = CARTESIAN_POINT ( 'NONE',  ( 0.000000000000000000, -1.500000000000000000, 0.000000000000000000 ) ) ;
#302 = LINE ( 'NONE', #564, #471 ) ;
#303 = PRODUCT_DEFINITION_FORMATION_WITH_SPECIFIED_SOURCE ( 'ANY', '', #155, .NOT_KNOWN. ) ;
#304 = EDGE_LOOP ( 'NONE', ( #598, #17, #636, #131 ) ) ;
#305 = CARTESIAN_POINT ( 'NONE',  ( 6.000000000000000000, -1.530000000000000027, -5.099999999999999645 ) ) ;
#306 = DIRECTION ( 'NONE',  ( 0.000000000000000000, -0.000000000000000000, 1.000000000000000000 ) ) ;
#307 = EDGE_CURVE ( 'NONE', #105, #55, #98, .T. ) ;
#308 = AXIS2_PLACEMENT_3D ( 'NONE', #779, #429, #104 ) ;
#309 = EDGE_LOOP ( 'NONE', ( #676, #81, #277, #733 ) ) ;
#310 = VECTOR ( 'NONE', #42, 1000.000000000000000 ) ;
#311 = CARTESIAN_POINT ( 'NONE',  ( 0.000000000000000000, 0.000000000000000000, 0.000000000000000000 ) ) ;
#312 = CIRCLE ( 'NONE', #504, 0.5999999999999998668 ) ;
#313 = CARTESIAN_POINT ( 'NONE',  ( 7.500000000000000000, 0.02000000000000000042, -3.724999999999999201 ) ) ;
#314 = VERTEX_POINT ( 'NONE', #34 ) ;
#315 = ORIENTED_EDGE ( 'NONE', *, *, #290, .T. ) ;
#316 = DIRECTION ( 'NONE',  ( -1.000000000000000000, -0.000000000000000000, -1.161645184805898242E-16 ) ) ;
#317 = DIRECTION ( 'NONE',  ( -0.000000000000000000, -0.000000000000000000, 1.000000000000000000 ) ) ;
#318 = FACE_OUTER_BOUND ( 'NONE', #739, .T. ) ;
#319 = ORIENTED_EDGE ( 'NONE', *, *, #852, .T. ) ;
#320 = PRESENTATION_LAYER_ASSIGNMENT (  '', '', ( #216 ) ) ;
#321 = EDGE_CURVE ( 'NONE', #414, #746, #297, .T. ) ;
#322 = EDGE_LOOP ( 'NONE', ( #44, #296, #784, #78 ) ) ;
#323 = DIRECTION ( 'NONE',  ( -1.734723475976807094E-16, 0.000000000000000000, 1.000000000000000000 ) ) ;
#324 = DIRECTION ( 'NONE',  ( 0.000000000000000000, -1.000000000000000000, 0.000000000000000000 ) ) ;
#325 = ORIENTED_EDGE ( 'NONE', *, *, #639, .F. ) ;
#326 = ORIENTED_EDGE ( 'NONE', *, *, #561, .F. ) ;
#327 = VERTEX_POINT ( 'NONE', #580 ) ;
#328 = CARTESIAN_POINT ( 'NONE',  ( 7.500000000000000000, -1.530000000000000027, -2.600000000000000089 ) ) ;
#329 = DIRECTION ( 'NONE',  ( 0.000000000000000000, 0.000000000000000000, 1.000000000000000000 ) ) ;
#330 = VECTOR ( 'NONE', #347, 1000.000000000000000 ) ;
#331 = VERTEX_POINT ( 'NONE', #123 ) ;
#332 = CARTESIAN_POINT ( 'NONE',  ( 7.500000000000000000, 0.000000000000000000, -2.600000000000000089 ) ) ;
#333 = LINE ( 'NONE', #271, #10 ) ;
#334 = ORIENTED_EDGE ( 'NONE', *, *, #694, .F. ) ;
#335 = AXIS2_PLACEMENT_3D ( 'NONE', #138, #695, #837 ) ;
#336 = CARTESIAN_POINT ( 'NONE',  ( 7.500000000000000000, 0.02000000000000000042, -1.475000000000000311 ) ) ;
#337 = LINE ( 'NONE', #486, #269 ) ;
#338 = VERTEX_POINT ( 'NONE', #392 ) ;
#339 = ADVANCED_FACE ( 'NONE', ( #193 ), #856, .F. ) ;
#340 = ORIENTED_EDGE ( 'NONE', *, *, #288, .T. ) ;
#341 = AXIS2_PLACEMENT_3D ( 'NONE', #301, #641, #573 ) ;
#342 = DIRECTION ( 'NONE',  ( 0.000000000000000000, 0.000000000000000000, -1.000000000000000000 ) ) ;
#343 = DIRECTION ( 'NONE',  ( -0.000000000000000000, -0.000000000000000000, 1.000000000000000000 ) ) ;
#344 = ORIENTED_EDGE ( 'NONE', *, *, #376, .F. ) ;
#345 = CARTESIAN_POINT ( 'NONE',  ( 1.500000000000000000, -1.500000000000000000, -0.1000000000000000472 ) ) ;
#346 = VERTEX_POINT ( 'NONE', #247 ) ;
#347 = DIRECTION ( 'NONE',  ( 1.000000000000000000, 0.000000000000000000, 0.000000000000000000 ) ) ;
#348 =( LENGTH_UNIT ( ) NAMED_UNIT ( * ) SI_UNIT ( .MILLI., .METRE. ) );
#349 = CARTESIAN_POINT ( 'NONE',  ( 6.000000000000000000, -1.500000000000000000, -5.099999999999999645 ) ) ;
#350 = ORIENTED_EDGE ( 'NONE', *, *, #38, .F. ) ;
#351 =( GEOMETRIC_REPRESENTATION_CONTEXT ( 3 ) GLOBAL_UNCERTAINTY_ASSIGNED_CONTEXT ( ( #689 ) ) GLOBAL_UNIT_ASSIGNED_CONTEXT ( ( #348, #225, #424 ) ) REPRESENTATION_CONTEXT ( 'NONE', 'WORKASPACE' ) );
#352 = EDGE_CURVE ( 'NONE', #858, #249, #786, .T. ) ;
#353 = CARTESIAN_POINT ( 'NONE',  ( 7.500000000000000000, 0.02000000000000000042, -2.600000000000000089 ) ) ;
#354 = ORIENTED_EDGE ( 'NONE', *, *, #589, .F. ) ;
#355 = CARTESIAN_POINT ( 'NONE',  ( 0.000000000000000000, 0.000000000000000000, 0.000000000000000000 ) ) ;
#356 = PRODUCT_DEFINITION_CONTEXT ( 'detailed design', #569, 'design' ) ;
#357 = AXIS2_PLACEMENT_3D ( 'NONE', #256, #796, #374 ) ;
#358 = PLANE ( 'NONE',  #812 ) ;
#359 = CARTESIAN_POINT ( 'NONE',  ( 0.000000000000000000, -1.500000000000000000, 0.000000000000000000 ) ) ;
#360 = CARTESIAN_POINT ( 'NONE',  ( 0.1000000000000000472, -1.500000000000000000, -0.1000000000000000472 ) ) ;
#361 = EDGE_LOOP ( 'NONE', ( #22, #846, #417, #526 ) ) ;
#362 = AXIS2_PLACEMENT_3D ( 'NONE', #219, #721, #662 ) ;
#363 = DIRECTION ( 'NONE',  ( 1.000000000000000000, -0.000000000000000000, -0.000000000000000000 ) ) ;
#364 = EDGE_CURVE ( 'NONE', #716, #773, #449, .T. ) ;
#365 = LINE ( 'NONE', #630, #643 ) ;
#366 = ORIENTED_EDGE ( 'NONE', *, *, #709, .T. ) ;
#367 = DIRECTION ( 'NONE',  ( 1.000000000000000000, 0.000000000000000000, 0.000000000000000000 ) ) ;
#368 = VECTOR ( 'NONE', #479, 1000.000000000000000 ) ;
#369 = DIRECTION ( 'NONE',  ( 0.000000000000000000, 0.000000000000000000, 1.000000000000000000 ) ) ;
#370 = CARTESIAN_POINT ( 'NONE',  ( 7.500000000000000000, -1.500000000000000000, -1.999999999999999556 ) ) ;
#371 = ORIENTED_EDGE ( 'NONE', *, *, #442, .F. ) ;
#372 = ADVANCED_FACE ( 'NONE', ( #511 ), #645, .T. ) ;
#373 = LINE ( 'NONE', #723, #49 ) ;
#374 = DIRECTION ( 'NONE',  ( 1.734723475976807341E-16, 0.000000000000000000, -1.000000000000000000 ) ) ;
#375 = AXIS2_PLACEMENT_3D ( 'NONE', #496, #565, #635 ) ;
#376 = EDGE_CURVE ( 'NONE', #747, #873, #177, .T. ) ;
#377 = ORIENTED_EDGE ( 'NONE', *, *, #265, .T. ) ;
#378 = CARTESIAN_POINT ( 'NONE',  ( 0.1000000000000000472, -1.530000000000000027, -2.008392021690037943 ) ) ;
#379 = FACE_OUTER_BOUND ( 'NONE', #322, .T. ) ;
#380 = PLANE ( 'NONE',  #165 ) ;
#381 = UNCERTAINTY_MEASURE_WITH_UNIT (LENGTH_MEASURE( 1.000000000000000082E-05 ), #266, 'distance_accuracy_value', 'NONE');
#382 = VECTOR ( 'NONE', #213, 1000.000000000000000 ) ;
#383 = VERTEX_POINT ( 'NONE', #860 ) ;
#384 = CIRCLE ( 'NONE', #503, 1.125000000000000222 ) ;
#385 = DIRECTION ( 'NONE',  ( -0.000000000000000000, -1.000000000000000000, -0.000000000000000000 ) ) ;
#386 = LINE ( 'NONE', #517, #714 ) ;
#387 = CIRCLE ( 'NONE', #776, 0.5999999999999998668 ) ;
#388 = DIRECTION ( 'NONE',  ( 0.000000000000000000, 1.000000000000000000, -0.000000000000000000 ) ) ;
#389 = ORIENTED_EDGE ( 'NONE', *, *, #278, .T. ) ;
#390 = ORIENTED_EDGE ( 'NONE', *, *, #693, .F. ) ;
#391 =( NAMED_UNIT ( * ) PLANE_ANGLE_UNIT ( ) SI_UNIT ( $, .RADIAN. ) );
#392 = CARTESIAN_POINT ( 'NONE',  ( 0.000000000000000000, 0.02000000000000000042, -3.725000000000000089 ) ) ;
#393 = CARTESIAN_POINT ( 'NONE',  ( 6.000000000000000000, -1.500000000000000000, -5.099999999999999645 ) ) ;
#394 = ORIENTED_EDGE ( 'NONE', *, *, #185, .T. ) ;
#395 = ORIENTED_EDGE ( 'NONE', *, *, #170, .T. ) ;
#396 = EDGE_CURVE ( 'NONE', #195, #618, #386, .T. ) ;
#397 = PLANE ( 'NONE',  #235 ) ;
#398 = DIRECTION ( 'NONE',  ( 0.000000000000000000, 1.000000000000000000, 0.000000000000000000 ) ) ;
#399 = ORIENTED_EDGE ( 'NONE', *, *, #734, .T. ) ;
#400 = DIRECTION ( 'NONE',  ( 0.000000000000000000, 0.000000000000000000, 1.000000000000000000 ) ) ;
#401 = DIRECTION ( 'NONE',  ( 1.000000000000000000, -0.000000000000000000, 0.000000000000000000 ) ) ;
#402 = VECTOR ( 'NONE', #187, 1000.000000000000000 ) ;
#403 = EDGE_LOOP ( 'NONE', ( #146, #853, #703, #543, #354, #787 ) ) ;
#404 = ADVANCED_FACE ( 'NONE', ( #446 ), #43, .F. ) ;
#405 = LINE ( 'NONE', #336, #670 ) ;
#406 = DIRECTION ( 'NONE',  ( -1.000000000000000000, 0.000000000000000000, -1.734723475976807094E-16 ) ) ;
#407 = ORIENTED_EDGE ( 'NONE', *, *, #651, .T. ) ;
#408 = EDGE_CURVE ( 'NONE', #849, #314, #514, .T. ) ;
#409 = ORIENTED_EDGE ( 'NONE', *, *, #227, .F. ) ;
#410 = LINE ( 'NONE', #378, #402 ) ;
#411 = CARTESIAN_POINT ( 'NONE',  ( 7.500000000000000000, 0.000000000000000000, 0.000000000000000000 ) ) ;
#412 = PLANE ( 'NONE',  #362 ) ;
#413 = DIRECTION ( 'NONE',  ( -0.000000000000000000, 1.000000000000000000, 0.000000000000000000 ) ) ;
#414 = VERTEX_POINT ( 'NONE', #585 ) ;
#415 = CARTESIAN_POINT ( 'NONE',  ( 7.500000000000000000, -1.500000000000000000, -2.600000000000000089 ) ) ;
#416 = DIRECTION ( 'NONE',  ( -0.000000000000000000, 1.000000000000000000, 0.000000000000000000 ) ) ;
#417 = ORIENTED_EDGE ( 'NONE', *, *, #150, .F. ) ;
#418 = EDGE_CURVE ( 'NONE', #707, #472, #648, .T. ) ;
#419 = ADVANCED_FACE ( 'NONE', ( #379 ), #851, .F. ) ;
#420 = SHAPE_DEFINITION_REPRESENTATION ( #763, #575 ) ;
#421 = CARTESIAN_POINT ( 'NONE',  ( 1.500000000000000000, -1.530000000000000027, -0.1000000000000000472 ) ) ;
#422 = VERTEX_POINT ( 'NONE', #865 ) ;
#423 = CIRCLE ( 'NONE', #622, 1.125000000000000222 ) ;
#424 =( NAMED_UNIT ( * ) SI_UNIT ( $, .STERADIAN. ) SOLID_ANGLE_UNIT ( ) );
#425 = LINE ( 'NONE', #760, #495 ) ;
#426 = VERTEX_POINT ( 'NONE', #802 ) ;
#427 = LINE ( 'NONE', #777, #830 ) ;
#428 = VECTOR ( 'NONE', #262, 1000.000000000000000 ) ;
#429 = DIRECTION ( 'NONE',  ( 0.000000000000000000, 1.000000000000000000, 0.000000000000000000 ) ) ;
#430 = VECTOR ( 'NONE', #46, 1000.000000000000000 ) ;
#431 = CIRCLE ( 'NONE', #50, 0.5999999999999998668 ) ;
#432 = CARTESIAN_POINT ( 'NONE',  ( 1.500000000000000000, -1.530000000000000027, -0.1000000000000000472 ) ) ;
#433 = ORIENTED_EDGE ( 'NONE', *, *, #557, .F. ) ;
#434 = DIRECTION ( 'NONE',  ( -0.000000000000000000, -0.000000000000000000, 1.000000000000000000 ) ) ;
#435 = EDGE_CURVE ( 'NONE', #490, #414, #523, .T. ) ;
#436 = LINE ( 'NONE', #848, #4 ) ;
#437 = ORIENTED_EDGE ( 'NONE', *, *, #800, .F. ) ;
#438 = VECTOR ( 'NONE', #343, 1000.000000000000000 ) ;
#439 = CARTESIAN_POINT ( 'NONE',  ( 7.500000000000000000, 0.02000000000000000042, -1.475000000000000311 ) ) ;
#440 = CARTESIAN_POINT ( 'NONE',  ( 1.500000000000000000, -1.530000000000000027, -0.1000000000000000472 ) ) ;
#441 = LINE ( 'NONE', #359, #204 ) ;
#442 = EDGE_CURVE ( 'NONE', #618, #468, #71, .T. ) ;
#443 = VECTOR ( 'NONE', #181, 1000.000000000000000 ) ;
#444 = EDGE_CURVE ( 'NONE', #646, #327, #559, .T. ) ;
#445 = DIRECTION ( 'NONE',  ( -0.000000000000000000, -0.000000000000000000, 1.000000000000000000 ) ) ;
#446 = FACE_OUTER_BOUND ( 'NONE', #281, .T. ) ;
#447 = ORIENTED_EDGE ( 'NONE', *, *, #521, .T. ) ;
#448 = CARTESIAN_POINT ( 'NONE',  ( 0.000000000000000000, 0.02000000000000000042, -2.600000000000000089 ) ) ;
#449 = LINE ( 'NONE', #243, #653 ) ;
#450 = DIRECTION ( 'NONE',  ( 0.000000000000000000, 0.000000000000000000, -1.000000000000000000 ) ) ;
#451 = VERTEX_POINT ( 'NONE', #814 ) ;
#452 = CARTESIAN_POINT ( 'NONE',  ( 7.500000000000000000, 0.02000000000000000042, -3.724999999999999201 ) ) ;
#453 = CARTESIAN_POINT ( 'NONE',  ( 7.500000000000000000, -1.530000000000000027, -1.999999999999999556 ) ) ;
#454 = DIRECTION ( 'NONE',  ( 0.000000000000000000, -1.000000000000000000, 0.000000000000000000 ) ) ;
#455 = ORIENTED_EDGE ( 'NONE', *, *, #764, .T. ) ;
#456 = AXIS2_PLACEMENT_3D ( 'NONE', #770, #37, #704 ) ;
#457 = ORIENTED_EDGE ( 'NONE', *, *, #535, .F. ) ;
#458 = EDGE_CURVE ( 'NONE', #849, #716, #686, .T. ) ;
#459 = CYLINDRICAL_SURFACE ( 'NONE', #527, 0.5999999999999998668 ) ;
#460 = DIRECTION ( 'NONE',  ( 1.000000000000000000, 0.000000000000000000, 0.000000000000000000 ) ) ;
#461 = LINE ( 'NONE', #803, #13 ) ;
#462 = ORIENTED_EDGE ( 'NONE', *, *, #260, .F. ) ;
#463 = ADVANCED_FACE ( 'NONE', ( #273 ), #2, .T. ) ;
#464 = ORIENTED_EDGE ( 'NONE', *, *, #130, .T. ) ;
#465 = DIRECTION ( 'NONE',  ( -0.000000000000000000, 1.000000000000000000, -0.000000000000000000 ) ) ;
#466 = DIRECTION ( 'NONE',  ( 0.000000000000000000, -1.000000000000000000, 0.000000000000000000 ) ) ;
#467 = CIRCLE ( 'NONE', #284, 0.5999999999999998668 ) ;
#468 = VERTEX_POINT ( 'NONE', #740 ) ;
#469 = LINE ( 'NONE', #270, #872 ) ;
#470 = CARTESIAN_POINT ( 'NONE',  ( 0.000000000000000000, -1.500000000000000000, -2.600000000000000089 ) ) ;
#471 = VECTOR ( 'NONE', #510, 1000.000000000000000 ) ;
#472 = VERTEX_POINT ( 'NONE', #76 ) ;
#473 = ADVANCED_FACE ( 'NONE', ( #822 ), #201, .F. ) ;
#474 = FACE_OUTER_BOUND ( 'NONE', #191, .T. ) ;
#475 = PLANE ( 'NONE',  #335 ) ;
#476 = ORIENTED_EDGE ( 'NONE', *, *, #68, .F. ) ;
#477 = VECTOR ( 'NONE', #101, 1000.000000000000000 ) ;
#478 = ORIENTED_EDGE ( 'NONE', *, *, #79, .F. ) ;
#479 = DIRECTION ( 'NONE',  ( -0.000000000000000000, -1.000000000000000000, -0.000000000000000000 ) ) ;
#480 = FILL_AREA_STYLE_COLOUR ( '', #74 ) ;
#481 = DIRECTION ( 'NONE',  ( 1.000000000000000000, 0.000000000000000000, -0.000000000000000000 ) ) ;
#482 = DIRECTION ( 'NONE',  ( 0.000000000000000000, 0.000000000000000000, 1.000000000000000000 ) ) ;
#483 = LINE ( 'NONE', #551, #45 ) ;
#484 = EDGE_LOOP ( 'NONE', ( #809, #409, #867, #536, #100, #19, #624, #691, #487, #742, #179, #578, #789, #597, #621, #516, #344, #664, #334, #325 ) ) ;
#485 = CARTESIAN_POINT ( 'NONE',  ( 0.000000000000000000, 0.000000000000000000, 0.000000000000000000 ) ) ;
#486 = CARTESIAN_POINT ( 'NONE',  ( 0.000000000000000000, 0.02000000000000000042, -1.474999999999999867 ) ) ;
#487 = ORIENTED_EDGE ( 'NONE', *, *, #170, .F. ) ;
#488 =( NAMED_UNIT ( * ) SI_UNIT ( $, .STERADIAN. ) SOLID_ANGLE_UNIT ( ) );
#489 = LINE ( 'NONE', #84, #738 ) ;
#490 = VERTEX_POINT ( 'NONE', #14 ) ;
#491 = AXIS2_PLACEMENT_3D ( 'NONE', #137, #142, #748 ) ;
#492 = EDGE_CURVE ( 'NONE', #190, #327, #547, .T. ) ;
#493 = CARTESIAN_POINT ( 'NONE',  ( 7.399999999999999467, -1.500000000000000000, -5.099999999999999645 ) ) ;
#494 = CARTESIAN_POINT ( 'NONE',  ( 7.399999999999999467, -1.500000000000000000, -5.099999999999999645 ) ) ;
#495 = VECTOR ( 'NONE', #745, 1000.000000000000000 ) ;
#496 = CARTESIAN_POINT ( 'NONE',  ( 7.500000000000000000, 0.02000000000000000042, -2.600000000000000089 ) ) ;
#497 = CARTESIAN_POINT ( 'NONE',  ( 7.399999999999998579, -1.530000000000000027, -3.191607978309961791 ) ) ;
#498 = EDGE_CURVE ( 'NONE', #735, #108, #208, .T. ) ;
#499 = DIRECTION ( 'NONE',  ( -0.000000000000000000, -0.000000000000000000, 1.000000000000000000 ) ) ;
#500 = ORIENTED_EDGE ( 'NONE', *, *, #250, .T. ) ;
#501 = VECTOR ( 'NONE', #413, 1000.000000000000000 ) ;
#502 = DIRECTION ( 'NONE',  ( -0.000000000000000000, 1.000000000000000000, 0.000000000000000000 ) ) ;
#503 = AXIS2_PLACEMENT_3D ( 'NONE', #448, #590, #115 ) ;
#504 = AXIS2_PLACEMENT_3D ( 'NONE', #470, #454, #811 ) ;
#505 = DIRECTION ( 'NONE',  ( -1.000000000000000000, 0.000000000000000000, 0.000000000000000000 ) ) ;
#506 = ORIENTED_EDGE ( 'NONE', *, *, #250, .F. ) ;
#507 = DIRECTION ( 'NONE',  ( 0.000000000000000000, -1.000000000000000000, 0.000000000000000000 ) ) ;
#508 = DIRECTION ( 'NONE',  ( -0.000000000000000000, -1.000000000000000000, -0.000000000000000000 ) ) ;
#509 = AXIS2_PLACEMENT_3D ( 'NONE', #706, #508, #32 ) ;
#510 = DIRECTION ( 'NONE',  ( -0.000000000000000000, 1.000000000000000000, -0.000000000000000000 ) ) ;
#511 = FACE_OUTER_BOUND ( 'NONE', #304, .T. ) ;
#512 = EDGE_LOOP ( 'NONE', ( #566, #258, #506, #113 ) ) ;
#513 = VERTEX_POINT ( 'NONE', #279 ) ;
#514 = LINE ( 'NONE', #661, #224 ) ;
#515 = CLOSED_SHELL ( 'NONE', ( #58, #92, #263, #533, #339, #463, #666, #6, #248, #215, #718, #473, #834, #808, #625, #404, #419, #844, #869, #95, #372, #842, #697, #600, #619, #602 ) ) ;
#516 = ORIENTED_EDGE ( 'NONE', *, *, #788, .F. ) ;
#517 = CARTESIAN_POINT ( 'NONE',  ( 0.000000000000000000, 0.000000000000000000, 0.000000000000000000 ) ) ;
#518 = LINE ( 'NONE', #189, #854 ) ;
#519 = VERTEX_POINT ( 'NONE', #613 ) ;
#520 = EDGE_LOOP ( 'NONE', ( #500, #815, #530, #826, #610, #1 ) ) ;
#521 = EDGE_CURVE ( 'NONE', #422, #346, #469, .T. ) ;
#522 = LINE ( 'NONE', #584, #544 ) ;
#523 = LINE ( 'NONE', #47, #64 ) ;
#524 = LINE ( 'NONE', #240, #501 ) ;
#525 = ORIENTED_EDGE ( 'NONE', *, *, #458, .T. ) ;
#526 = ORIENTED_EDGE ( 'NONE', *, *, #174, .T. ) ;
#527 = AXIS2_PLACEMENT_3D ( 'NONE', #806, #197, #736 ) ;
#528 = FACE_OUTER_BOUND ( 'NONE', #603, .T. ) ;
#529 = CARTESIAN_POINT ( 'NONE',  ( 0.000000000000000000, -1.500000000000000000, -3.199999999999999734 ) ) ;
#530 = ORIENTED_EDGE ( 'NONE', *, *, #132, .T. ) ;
#531 = DIRECTION ( 'NONE',  ( 0.000000000000000000, -1.000000000000000000, 0.000000000000000000 ) ) ;
#532 = DIRECTION ( 'NONE',  ( 0.000000000000000000, 0.000000000000000000, -1.000000000000000000 ) ) ;
#533 = ADVANCED_FACE ( 'NONE', ( #474 ), #744, .F. ) ;
#534 = VECTOR ( 'NONE', #702, 1000.000000000000000 ) ;
#535 = EDGE_CURVE ( 'NONE', #190, #858, #405, .T. ) ;
#536 = ORIENTED_EDGE ( 'NONE', *, *, #732, .F. ) ;
#537 = DIRECTION ( 'NONE',  ( 1.734723475976807341E-16, -0.000000000000000000, -1.000000000000000000 ) ) ;
#538 = CARTESIAN_POINT ( 'NONE',  ( 0.1000000000000000472, -1.530000000000000027, -3.191607978309961791 ) ) ;
#539 = VECTOR ( 'NONE', #80, 1000.000000000000000 ) ;
#540 = ORIENTED_EDGE ( 'NONE', *, *, #56, .T. ) ;
#541 = DIRECTION ( 'NONE',  ( 0.000000000000000000, 0.000000000000000000, -1.000000000000000000 ) ) ;
#542 = DIRECTION ( 'NONE',  ( -0.000000000000000000, -0.000000000000000000, 1.000000000000000000 ) ) ;
#543 = ORIENTED_EDGE ( 'NONE', *, *, #820, .F. ) ;
#544 = VECTOR ( 'NONE', #323, 1000.000000000000000 ) ;
#545 = VECTOR ( 'NONE', #737, 1000.000000000000000 ) ;
#546 = ORIENTED_EDGE ( 'NONE', *, *, #732, .T. ) ;
#547 = LINE ( 'NONE', #604, #368 ) ;
#548 = APPLICATION_PROTOCOL_DEFINITION ( 'draft international standard', 'automotive_design', 1998, #569 ) ;
#549 = FACE_OUTER_BOUND ( 'NONE', #154, .T. ) ;
#550 = ORIENTED_EDGE ( 'NONE', *, *, #352, .T. ) ;
#551 = CARTESIAN_POINT ( 'NONE',  ( 0.000000000000000000, -1.530000000000000027, -2.000000000000000000 ) ) ;
#552 = VECTOR ( 'NONE', #558, 1000.000000000000000 ) ;
#553 = ORIENTED_EDGE ( 'NONE', *, *, #788, .T. ) ;
#554 = DIRECTION ( 'NONE',  ( -1.734723475976807094E-16, 0.000000000000000000, 1.000000000000000000 ) ) ;
#555 = EDGE_LOOP ( 'NONE', ( #223, #433, #722, #300 ) ) ;
#556 = MANIFOLD_SOLID_BREP ( '°£®Æ-¦ùªø1', #515 ) ;
#557 = EDGE_CURVE ( 'NONE', #338, #665, #795, .T. ) ;
#558 = DIRECTION ( 'NONE',  ( -1.734723475976807094E-16, 0.000000000000000000, 1.000000000000000000 ) ) ;
#559 = CIRCLE ( 'NONE', #135, 1.124999999999999334 ) ;
#560 = FACE_OUTER_BOUND ( 'NONE', #75, .T. ) ;
#561 = EDGE_CURVE ( 'NONE', #746, #97, #410, .T. ) ;
#562 = EDGE_CURVE ( 'NONE', #55, #646, #647, .T. ) ;
#563 = CARTESIAN_POINT ( 'NONE',  ( 7.500000000000000000, 0.000000000000000000, -5.200000000000000178 ) ) ;
#564 = CARTESIAN_POINT ( 'NONE',  ( 7.500000000000000000, -1.530000000000000027, -3.200000000000000178 ) ) ;
#565 = DIRECTION ( 'NONE',  ( 0.000000000000000000, 1.000000000000000000, 0.000000000000000000 ) ) ;
#566 = ORIENTED_EDGE ( 'NONE', *, *, #321, .T. ) ;
#567 = LINE ( 'NONE', #497, #581 ) ;
#568 = EDGE_CURVE ( 'NONE', #761, #451, #522, .T. ) ;
#569 = APPLICATION_CONTEXT ( 'automotive_design' ) ;
#570 = CARTESIAN_POINT ( 'NONE',  ( 0.000000000000000000, -1.500000000000000000, 0.000000000000000000 ) ) ;
#571 = VERTEX_POINT ( 'NONE', #192 ) ;
#572 = EDGE_CURVE ( 'NONE', #346, #707, #595, .T. ) ;
#573 = DIRECTION ( 'NONE',  ( 1.000000000000000000, 0.000000000000000000, -0.000000000000000000 ) ) ;
#574 = ORIENTED_EDGE ( 'NONE', *, *, #290, .F. ) ;
#575 = ADVANCED_BREP_SHAPE_REPRESENTATION ( 'mf-lsmf075_60x', ( #556, #692 ), #351 ) ;
#576 = LINE ( 'NONE', #847, #382 ) ;
#577 = EDGE_LOOP ( 'NONE', ( #727, #237, #275, #804, #447, #9 ) ) ;
#578 = ORIENTED_EDGE ( 'NONE', *, *, #298, .F. ) ;
#579 = PLANE ( 'NONE',  #163 ) ;
#580 = CARTESIAN_POINT ( 'NONE',  ( 7.500000000000000000, 0.000000000000000000, -1.475000000000000311 ) ) ;
#581 = VECTOR ( 'NONE', #507, 1000.000000000000000 ) ;
#582 = EDGE_LOOP ( 'NONE', ( #588, #264, #209, #669 ) ) ;
#583 = VECTOR ( 'NONE', #671, 1000.000000000000000 ) ;
#584 = CARTESIAN_POINT ( 'NONE',  ( 7.399999999999999467, -1.530000000000000027, -5.099999999999999645 ) ) ;
#585 = CARTESIAN_POINT ( 'NONE',  ( 0.1000000000000000472, -1.500000000000000000, -0.1000000000000000472 ) ) ;
#586 = CARTESIAN_POINT ( 'NONE',  ( 7.500000000000000000, -1.500000000000000000, 0.000000000000000000 ) ) ;
#587 = VERTEX_POINT ( 'NONE', #801 ) ;
#588 = ORIENTED_EDGE ( 'NONE', *, *, #186, .F. ) ;
#589 = EDGE_CURVE ( 'NONE', #314, #773, #373, .T. ) ;
#590 = DIRECTION ( 'NONE',  ( 0.000000000000000000, 1.000000000000000000, 0.000000000000000000 ) ) ;
#591 = CARTESIAN_POINT ( 'NONE',  ( 7.399999999999999467, -1.530000000000000027, -5.099999999999999645 ) ) ;
#592 = DIRECTION ( 'NONE',  ( -0.000000000000000000, 1.000000000000000000, 0.000000000000000000 ) ) ;
#593 = VERTEX_POINT ( 'NONE', #655 ) ;
#594 = ORIENTED_EDGE ( 'NONE', *, *, #260, .T. ) ;
#595 = LINE ( 'NONE', #305, #430 ) ;
#596 = CARTESIAN_POINT ( 'NONE',  ( 5.999999999999999112, -1.500000000000000000, -0.09999999999999993616 ) ) ;
#597 = ORIENTED_EDGE ( 'NONE', *, *, #852, .F. ) ;
#598 = ORIENTED_EDGE ( 'NONE', *, *, #444, .T. ) ;
#599 = PRESENTATION_LAYER_ASSIGNMENT (  '', '', ( #103 ) ) ;
#600 = ADVANCED_FACE ( 'NONE', ( #110 ), #579, .T. ) ;
#601 = CARTESIAN_POINT ( 'NONE',  ( 0.000000000000000000, -1.530000000000000027, 0.000000000000000000 ) ) ;
#602 = ADVANCED_FACE ( 'NONE', ( #246 ), #791, .F. ) ;
#603 = EDGE_LOOP ( 'NONE', ( #476, #326, #283, #340, #183, #540, #728, #169 ) ) ;
#604 = CARTESIAN_POINT ( 'NONE',  ( 7.500000000000000000, 0.02000000000000000042, -1.475000000000000311 ) ) ;
#605 = LINE ( 'NONE', #257, #654 ) ;
#606 = AXIS2_PLACEMENT_3D ( 'NONE', #687, #211, #16 ) ;
#607 = EDGE_CURVE ( 'NONE', #615, #338, #384, .T. ) ;
#608 = SURFACE_STYLE_FILL_AREA ( #674 ) ;
#609 = LINE ( 'NONE', #690, #41 ) ;
#610 = ORIENTED_EDGE ( 'NONE', *, *, #751, .T. ) ;
#611 = VECTOR ( 'NONE', #253, 1000.000000000000000 ) ;
#612 = ORIENTED_EDGE ( 'NONE', *, *, #780, .T. ) ;
#613 = CARTESIAN_POINT ( 'NONE',  ( 0.000000000000000000, -1.500000000000000000, 0.000000000000000000 ) ) ;
#614 = LINE ( 'NONE', #355, #230 ) ;
#615 = VERTEX_POINT ( 'NONE', #644 ) ;
#616 = EDGE_CURVE ( 'NONE', #451, #422, #52, .T. ) ;
#617 = PLANE ( 'NONE',  #456 ) ;
#618 = VERTEX_POINT ( 'NONE', #864 ) ;
#619 = ADVANCED_FACE ( 'NONE', ( #528 ), #459, .F. ) ;
#620 = PLANE ( 'NONE',  #88 ) ;
#621 = ORIENTED_EDGE ( 'NONE', *, *, #498, .F. ) ;
#622 = AXIS2_PLACEMENT_3D ( 'NONE', #222, #824, #832 ) ;
#623 = DIRECTION ( 'NONE',  ( 0.000000000000000000, 0.000000000000000000, -1.000000000000000000 ) ) ;
#624 = ORIENTED_EDGE ( 'NONE', *, *, #228, .F. ) ;
#625 = ADVANCED_FACE ( 'NONE', ( #128 ), #397, .F. ) ;
#626 = CARTESIAN_POINT ( 'NONE',  ( 7.500000000000000000, -1.500000000000000000, -5.200000000000000178 ) ) ;
#627 = AXIS2_PLACEMENT_3D ( 'NONE', #720, #107, #111 ) ;
#628 = EDGE_CURVE ( 'NONE', #659, #232, #62, .T. ) ;
#629 =( NAMED_UNIT ( * ) PLANE_ANGLE_UNIT ( ) SI_UNIT ( $, .RADIAN. ) );
#630 = CARTESIAN_POINT ( 'NONE',  ( 0.000000000000000000, 0.02000000000000000042, -1.474999999999999867 ) ) ;
#631 = LINE ( 'NONE', #94, #234 ) ;
#632 = LINE ( 'NONE', #96, #23 ) ;
#633 = ORIENTED_EDGE ( 'NONE', *, *, #227, .T. ) ;
#634 = CARTESIAN_POINT ( 'NONE',  ( 0.1000000000000000472, -1.530000000000000027, -0.1000000000000000472 ) ) ;
#635 = DIRECTION ( 'NONE',  ( 0.000000000000000000, 0.000000000000000000, 1.000000000000000000 ) ) ;
#636 = ORIENTED_EDGE ( 'NONE', *, *, #710, .F. ) ;
#637 = FACE_OUTER_BOUND ( 'NONE', #682, .T. ) ;
#638 = VECTOR ( 'NONE', #239, 1000.000000000000000 ) ;
#639 = EDGE_CURVE ( 'NONE', #426, #587, #106, .T. ) ;
#640 = CARTESIAN_POINT ( 'NONE',  ( 1.500000000000000000, -1.500000000000000000, -5.099999999999999645 ) ) ;
#641 = DIRECTION ( 'NONE',  ( 0.000000000000000000, 0.000000000000000000, 1.000000000000000000 ) ) ;
#642 = ORIENTED_EDGE ( 'NONE', *, *, #307, .F. ) ;
#643 = VECTOR ( 'NONE', #499, 1000.000000000000000 ) ;
#644 = CARTESIAN_POINT ( 'NONE',  ( 0.000000000000000000, 0.02000000000000000042, -1.474999999999999867 ) ) ;
#645 = CYLINDRICAL_SURFACE ( 'NONE', #627, 1.124999999999999334 ) ;
#646 = VERTEX_POINT ( 'NONE', #299 ) ;
#647 = LINE ( 'NONE', #452, #310 ) ;
#648 = LINE ( 'NONE', #591, #759 ) ;
#649 = LINE ( 'NONE', #198, #114 ) ;
#650 = VECTOR ( 'NONE', #434, 1000.000000000000000 ) ;
#651 = EDGE_CURVE ( 'NONE', #778, #615, #365, .T. ) ;
#652 = ORIENTED_EDGE ( 'NONE', *, *, #5, .F. ) ;
#653 = VECTOR ( 'NONE', #715, 1000.000000000000000 ) ;
#654 = VECTOR ( 'NONE', #324, 1000.000000000000000 ) ;
#655 = CARTESIAN_POINT ( 'NONE',  ( 0.000000000000000000, -1.500000000000000000, -2.000000000000000000 ) ) ;
#656 = DIRECTION ( 'NONE',  ( 0.000000000000000000, -0.000000000000000000, -1.000000000000000000 ) ) ;
#657 = CARTESIAN_POINT ( 'NONE',  ( 7.500000000000000000, -1.500000000000000000, -3.200000000000000178 ) ) ;
#658 = VERTEX_POINT ( 'NONE', #699 ) ;
#659 = VERTEX_POINT ( 'NONE', #640 ) ;
#660 = DIRECTION ( 'NONE',  ( 0.000000000000000000, -0.000000000000000000, 1.000000000000000000 ) ) ;
#661 = CARTESIAN_POINT ( 'NONE',  ( 0.000000000000000000, -1.500000000000000000, -5.200000000000000178 ) ) ;
#662 = DIRECTION ( 'NONE',  ( -1.000000000000000000, 0.000000000000000000, -0.000000000000000000 ) ) ;
#663 = CIRCLE ( 'NONE', #127, 0.6000000000000003109 ) ;
#664 = ORIENTED_EDGE ( 'NONE', *, *, #120, .F. ) ;
#665 = VERTEX_POINT ( 'NONE', #35 ) ;
#666 = ADVANCED_FACE ( 'NONE', ( #838 ), #358, .T. ) ;
#667 = DIRECTION ( 'NONE',  ( 0.000000000000000000, 1.000000000000000000, 0.000000000000000000 ) ) ;
#668 = CARTESIAN_POINT ( 'NONE',  ( 0.000000000000000000, 0.02000000000000000042, -1.474999999999999867 ) ) ;
#669 = ORIENTED_EDGE ( 'NONE', *, *, #535, .T. ) ;
#670 = VECTOR ( 'NONE', #541, 1000.000000000000000 ) ;
#671 = DIRECTION ( 'NONE',  ( 0.000000000000000000, 1.000000000000000000, 0.000000000000000000 ) ) ;
#672 = LINE ( 'NONE', #807, #843 ) ;
#673 = VERTEX_POINT ( 'NONE', #432 ) ;
#674 = FILL_AREA_STYLE ('',( #827 ) ) ;
#675 = CARTESIAN_POINT ( 'NONE',  ( 0.1000000000000000472, -1.500000000000000000, -2.008392021690037943 ) ) ;
#676 = ORIENTED_EDGE ( 'NONE', *, *, #628, .T. ) ;
#677 = VECTOR ( 'NONE', #206, 1000.000000000000000 ) ;
#678 = VERTEX_POINT ( 'NONE', #229 ) ;
#679 = DIRECTION ( 'NONE',  ( -1.000000000000000000, 0.000000000000000000, -0.000000000000000000 ) ) ;
#680 = DIRECTION ( 'NONE',  ( 0.000000000000000000, 0.000000000000000000, 1.000000000000000000 ) ) ;
#681 = FACE_OUTER_BOUND ( 'NONE', #512, .T. ) ;
#682 = EDGE_LOOP ( 'NONE', ( #371, #118, #688, #868 ) ) ;
#683 = EDGE_CURVE ( 'NONE', #658, #571, #772, .T. ) ;
#684 = LINE ( 'NONE', #233, #650 ) ;
#685 = EDGE_LOOP ( 'NONE', ( #652, #574, #798, #594, #73, #550, #366, #196 ) ) ;
#686 = LINE ( 'NONE', #7, #583 ) ;
#687 = CARTESIAN_POINT ( 'NONE',  ( 0.1000000000000000472, -1.530000000000000027, -0.1000000000000000472 ) ) ;
#688 = ORIENTED_EDGE ( 'NONE', *, *, #790, .T. ) ;
#689 = UNCERTAINTY_MEASURE_WITH_UNIT (LENGTH_MEASURE( 1.000000000000000082E-05 ), #348, 'distance_accuracy_value', 'NONE');
#690 = CARTESIAN_POINT ( 'NONE',  ( 7.399999999999999467, -1.530000000000000027, -5.099999999999999645 ) ) ;
#691 = ORIENTED_EDGE ( 'NONE', *, *, #628, .F. ) ;
#692 = AXIS2_PLACEMENT_3D ( 'NONE', #26, #680, #823 ) ;
#693 = EDGE_CURVE ( 'NONE', #346, #747, #102, .T. ) ;
#694 = EDGE_CURVE ( 'NONE', #587, #87, #632, .T. ) ;
#695 = DIRECTION ( 'NONE',  ( 1.161645184805898242E-16, 0.000000000000000000, -1.000000000000000000 ) ) ;
#696 = FACE_OUTER_BOUND ( 'NONE', #582, .T. ) ;
#697 = ADVANCED_FACE ( 'NONE', ( #172 ), #28, .T. ) ;
#698 = VECTOR ( 'NONE', #202, 1000.000000000000000 ) ;
#699 = CARTESIAN_POINT ( 'NONE',  ( 0.1000000000000000472, -1.500000000000000000, -3.191607978309961791 ) ) ;
#700 = LINE ( 'NONE', #712, #816 ) ;
#701 = VECTOR ( 'NONE', #385, 1000.000000000000000 ) ;
#702 = DIRECTION ( 'NONE',  ( -0.000000000000000000, 1.000000000000000000, 0.000000000000000000 ) ) ;
#703 = ORIENTED_EDGE ( 'NONE', *, *, #557, .T. ) ;
#704 = DIRECTION ( 'NONE',  ( 0.000000000000000000, 0.000000000000000000, -1.000000000000000000 ) ) ;
#705 = AXIS2_PLACEMENT_3D ( 'NONE', #440, #164, #236 ) ;
#706 = CARTESIAN_POINT ( 'NONE',  ( 0.000000000000000000, 0.02000000000000000042, -2.600000000000000089 ) ) ;
#707 = VERTEX_POINT ( 'NONE', #99 ) ;
#708 = CARTESIAN_POINT ( 'NONE',  ( 0.1000000000000000472, -1.500000000000000000, -0.1000000000000000472 ) ) ;
#709 = EDGE_CURVE ( 'NONE', #249, #426, #663, .T. ) ;
#710 = EDGE_CURVE ( 'NONE', #55, #190, #157, .T. ) ;
#711 = CARTESIAN_POINT ( 'NONE',  ( 7.500000000000000000, -1.500000000000000000, -2.600000000000000089 ) ) ;
#712 = CARTESIAN_POINT ( 'NONE',  ( 1.500000000000000000, -1.530000000000000027, -5.099999999999999645 ) ) ;
#713 = ORIENTED_EDGE ( 'NONE', *, *, #639, .T. ) ;
#714 = VECTOR ( 'NONE', #317, 1000.000000000000000 ) ;
#715 = DIRECTION ( 'NONE',  ( -1.000000000000000000, -0.000000000000000000, -0.000000000000000000 ) ) ;
#716 = VERTEX_POINT ( 'NONE', #563 ) ;
#717 = AXIS2_PLACEMENT_3D ( 'NONE', #353, #280, #757 ) ;
#718 = ADVANCED_FACE ( 'NONE', ( #769 ), #160, .F. ) ;
#719 = CARTESIAN_POINT ( 'NONE',  ( 0.000000000000000000, -1.530000000000000027, 0.000000000000000000 ) ) ;
#720 = CARTESIAN_POINT ( 'NONE',  ( 7.500000000000000000, 0.02000000000000000042, -2.600000000000000089 ) ) ;
#721 = DIRECTION ( 'NONE',  ( 0.000000000000000000, 0.000000000000000000, -1.000000000000000000 ) ) ;
#722 = ORIENTED_EDGE ( 'NONE', *, *, #607, .F. ) ;
#723 = CARTESIAN_POINT ( 'NONE',  ( 0.000000000000000000, -1.500000000000000000, -5.200000000000000178 ) ) ;
#724 = DIRECTION ( 'NONE',  ( 0.000000000000000000, -1.000000000000000000, 0.000000000000000000 ) ) ;
#725 = PLANE ( 'NONE',  #821 ) ;
#726 = VECTOR ( 'NONE', #171, 1000.000000000000000 ) ;
#727 = ORIENTED_EDGE ( 'NONE', *, *, #418, .T. ) ;
#728 = ORIENTED_EDGE ( 'NONE', *, *, #39, .T. ) ;
#729 =( NAMED_UNIT ( * ) SI_UNIT ( $, .STERADIAN. ) SOLID_ANGLE_UNIT ( ) );
#730 = DIRECTION ( 'NONE',  ( -0.000000000000000000, 1.000000000000000000, 0.000000000000000000 ) ) ;
#731 = DIRECTION ( 'NONE',  ( 0.000000000000000000, 1.000000000000000000, 0.000000000000000000 ) ) ;
#732 = EDGE_CURVE ( 'NONE', #593, #519, #427, .T. ) ;
#733 = ORIENTED_EDGE ( 'NONE', *, *, #199, .T. ) ;
#734 = EDGE_CURVE ( 'NONE', #451, #587, #436, .T. ) ;
#735 = VERTEX_POINT ( 'NONE', #274 ) ;
#736 = DIRECTION ( 'NONE',  ( 0.000000000000000000, 0.000000000000000000, 1.000000000000000000 ) ) ;
#737 = DIRECTION ( 'NONE',  ( -0.000000000000000000, -1.000000000000000000, -0.000000000000000000 ) ) ;
#738 = VECTOR ( 'NONE', #416, 1000.000000000000000 ) ;
#739 = EDGE_LOOP ( 'NONE', ( #793, #546, #377, #862, #478, #166 ) ) ;
#740 = CARTESIAN_POINT ( 'NONE',  ( 7.500000000000000000, 0.000000000000000000, 0.000000000000000000 ) ) ;
#741 = DIRECTION ( 'NONE',  ( 0.000000000000000000, 0.000000000000000000, -1.000000000000000000 ) ) ;
#742 = ORIENTED_EDGE ( 'NONE', *, *, #683, .F. ) ;
#743 =( GEOMETRIC_REPRESENTATION_CONTEXT ( 3 ) GLOBAL_UNCERTAINTY_ASSIGNED_CONTEXT ( ( #381 ) ) GLOBAL_UNIT_ASSIGNED_CONTEXT ( ( #266, #391, #729 ) ) REPRESENTATION_CONTEXT ( 'NONE', 'WORKASPACE' ) );
#744 = PLANE ( 'NONE',  #491 ) ;
#745 = DIRECTION ( 'NONE',  ( 1.000000000000000000, 0.000000000000000000, 0.000000000000000000 ) ) ;
#746 = VERTEX_POINT ( 'NONE', #675 ) ;
#747 = VERTEX_POINT ( 'NONE', #349 ) ;
#748 = DIRECTION ( 'NONE',  ( -1.734723475976807094E-16, 0.000000000000000000, 1.000000000000000000 ) ) ;
#749 = CARTESIAN_POINT ( 'NONE',  ( 1.500000000000000000, -1.530000000000000027, -5.099999999999999645 ) ) ;
#750 = ORIENTED_EDGE ( 'NONE', *, *, #817, .T. ) ;
#751 = EDGE_CURVE ( 'NONE', #513, #673, #148, .T. ) ;
#752 = AXIS2_PLACEMENT_3D ( 'NONE', #212, #825, #482 ) ;
#753 = DIRECTION ( 'NONE',  ( 0.000000000000000000, 1.000000000000000000, 0.000000000000000000 ) ) ;
#754 = ORIENTED_EDGE ( 'NONE', *, *, #408, .T. ) ;
#755 = DIRECTION ( 'NONE',  ( 0.000000000000000000, -0.000000000000000000, -1.000000000000000000 ) ) ;
#756 =( LENGTH_UNIT ( ) NAMED_UNIT ( * ) SI_UNIT ( .MILLI., .METRE. ) );
#757 = DIRECTION ( 'NONE',  ( 0.000000000000000000, -0.000000000000000000, 1.000000000000000000 ) ) ;
#758 = ORIENTED_EDGE ( 'NONE', *, *, #444, .F. ) ;
#759 = VECTOR ( 'NONE', #792, 1000.000000000000000 ) ;
#760 = CARTESIAN_POINT ( 'NONE',  ( 0.000000000000000000, -1.500000000000000000, 0.000000000000000000 ) ) ;
#761 = VERTEX_POINT ( 'NONE', #72 ) ;
#762 = EDGE_CURVE ( 'NONE', #195, #665, #423, .T. ) ;
#763 = PRODUCT_DEFINITION_SHAPE ( 'NONE', 'NONE',  #31 ) ;
#764 = EDGE_CURVE ( 'NONE', #338, #383, #337, .T. ) ;
#765 = DIRECTION ( 'NONE',  ( 0.000000000000000000, 0.000000000000000000, 1.000000000000000000 ) ) ;
#766 = VECTOR ( 'NONE', #93, 1000.000000000000000 ) ;
#767 = SURFACE_STYLE_FILL_AREA ( #15 ) ;
#768 = EDGE_CURVE ( 'NONE', #707, #873, #609, .T. ) ;
#769 = FACE_OUTER_BOUND ( 'NONE', #309, .T. ) ;
#770 = CARTESIAN_POINT ( 'NONE',  ( 7.500000000000000000, -1.500000000000000000, 0.000000000000000000 ) ) ;
#771 = CIRCLE ( 'NONE', #308, 0.6000000000000003109 ) ;
#772 = LINE ( 'NONE', #360, #766 ) ;
#773 = VERTEX_POINT ( 'NONE', #8 ) ;
#774 = CARTESIAN_POINT ( 'NONE',  ( 0.1000000000000000472, -1.530000000000000027, -0.1000000000000000472 ) ) ;
#775 = VECTOR ( 'NONE', #460, 1000.000000000000000 ) ;
#776 = AXIS2_PLACEMENT_3D ( 'NONE', #48, #466, #532 ) ;
#777 = CARTESIAN_POINT ( 'NONE',  ( 0.000000000000000000, -1.500000000000000000, 0.000000000000000000 ) ) ;
#778 = VERTEX_POINT ( 'NONE', #89 ) ;
#779 = CARTESIAN_POINT ( 'NONE',  ( 7.500000000000000000, 0.02000000000000005246, -2.600000000000000089 ) ) ;
#780 = EDGE_CURVE ( 'NONE', #646, #716, #828, .T. ) ;
#781 = MECHANICAL_DESIGN_GEOMETRIC_PRESENTATION_REPRESENTATION (  '', ( #216 ), #184 ) ;
#782 = DIRECTION ( 'NONE',  ( -0.000000000000000000, 1.000000000000000000, 0.000000000000000000 ) ) ;
#783 = PLANE ( 'NONE',  #272 ) ;
#784 = ORIENTED_EDGE ( 'NONE', *, *, #572, .F. ) ;
#785 = DIRECTION ( 'NONE',  ( 0.000000000000000000, -0.000000000000000000, 1.000000000000000000 ) ) ;
#786 = LINE ( 'NONE', #453, #443 ) ;
#787 = ORIENTED_EDGE ( 'NONE', *, *, #298, .T. ) ;
#788 = EDGE_CURVE ( 'NONE', #873, #735, #77, .T. ) ;
#789 = ORIENTED_EDGE ( 'NONE', *, *, #408, .F. ) ;
#790 = EDGE_CURVE ( 'NONE', #519, #331, #425, .T. ) ;
#791 = CYLINDRICAL_SURFACE ( 'NONE', #12, 0.6000000000000003109 ) ;
#792 = DIRECTION ( 'NONE',  ( -1.734723475976807094E-16, 0.000000000000000000, 1.000000000000000000 ) ) ;
#793 = ORIENTED_EDGE ( 'NONE', *, *, #288, .F. ) ;
#794 = VECTOR ( 'NONE', #623, 1000.000000000000000 ) ;
#795 = LINE ( 'NONE', #261, #701 ) ;
#796 = DIRECTION ( 'NONE',  ( 1.000000000000000000, 0.000000000000000000, 1.734723475976807341E-16 ) ) ;
#797 = CARTESIAN_POINT ( 'NONE',  ( 7.500000000000000000, 0.02000000000000005246, -3.200000000000000178 ) ) ;
#798 = ORIENTED_EDGE ( 'NONE', *, *, #498, .T. ) ;
#799 = ORIENTED_EDGE ( 'NONE', *, *, #780, .F. ) ;
#800 = EDGE_CURVE ( 'NONE', #778, #383, #467, .T. ) ;
#801 = CARTESIAN_POINT ( 'NONE',  ( 7.399999999999998579, -1.500000000000000000, -0.09999999999999976963 ) ) ;
#802 = CARTESIAN_POINT ( 'NONE',  ( 7.399999999999998579, -1.500000000000000000, -2.008392021690037943 ) ) ;
#803 = CARTESIAN_POINT ( 'NONE',  ( 7.500000000000000000, -1.500000000000000000, 0.000000000000000000 ) ) ;
#804 = ORIENTED_EDGE ( 'NONE', *, *, #616, .T. ) ;
#805 = ORIENTED_EDGE ( 'NONE', *, *, #418, .F. ) ;
#806 = CARTESIAN_POINT ( 'NONE',  ( 0.000000000000000000, -1.530000000000000027, -2.600000000000000089 ) ) ;
#807 = CARTESIAN_POINT ( 'NONE',  ( 1.500000000000000000, -1.530000000000000027, -0.1000000000000000472 ) ) ;
#808 = ADVANCED_FACE ( 'NONE', ( #21 ), #24, .F. ) ;
#809 = ORIENTED_EDGE ( 'NONE', *, *, #709, .F. ) ;
#810 = DIRECTION ( 'NONE',  ( 0.000000000000000000, 0.000000000000000000, -1.000000000000000000 ) ) ;
#811 = DIRECTION ( 'NONE',  ( 0.000000000000000000, 0.000000000000000000, -1.000000000000000000 ) ) ;
#812 = AXIS2_PLACEMENT_3D ( 'NONE', #570, #505, #369 ) ;
#813 = ORIENTED_EDGE ( 'NONE', *, *, #132, .F. ) ;
#814 = CARTESIAN_POINT ( 'NONE',  ( 7.399999999999998579, -1.530000000000000027, -0.09999999999999976963 ) ) ;
#815 = ORIENTED_EDGE ( 'NONE', *, *, #68, .T. ) ;
#816 = VECTOR ( 'NONE', #502, 1000.000000000000000 ) ;
#817 = EDGE_CURVE ( 'NONE', #178, #571, #489, .T. ) ;
#818 = ORIENTED_EDGE ( 'NONE', *, *, #820, .T. ) ;
#819 = AXIS2_PLACEMENT_3D ( 'NONE', #133, #66, #755 ) ;
#820 = EDGE_CURVE ( 'NONE', #773, #665, #614, .T. ) ;
#821 = AXIS2_PLACEMENT_3D ( 'NONE', #874, #59, #129 ) ;
#822 = FACE_OUTER_BOUND ( 'NONE', #361, .T. ) ;
#823 = DIRECTION ( 'NONE',  ( 1.000000000000000000, 0.000000000000000000, 0.000000000000000000 ) ) ;
#824 = DIRECTION ( 'NONE',  ( 0.000000000000000000, 1.000000000000000000, 0.000000000000000000 ) ) ;
#825 = DIRECTION ( 'NONE',  ( 0.000000000000000000, 1.000000000000000000, 0.000000000000000000 ) ) ;
#826 = ORIENTED_EDGE ( 'NONE', *, *, #242, .T. ) ;
#827 = FILL_AREA_STYLE_COLOUR ( '', #245 ) ;
#828 = LINE ( 'NONE', #411, #677 ) ;
#829 = ORIENTED_EDGE ( 'NONE', *, *, #568, .F. ) ;
#830 = VECTOR ( 'NONE', #168, 1000.000000000000000 ) ;
#831 = CARTESIAN_POINT ( 'NONE',  ( 0.000000000000000000, 0.000000000000000000, -1.474999999999999867 ) ) ;
#832 = DIRECTION ( 'NONE',  ( 0.000000000000000000, 0.000000000000000000, 1.000000000000000000 ) ) ;
#833 = EDGE_LOOP ( 'NONE', ( #813, #464, #203, #141 ) ) ;
#834 = ADVANCED_FACE ( 'NONE', ( #681 ), #289, .F. ) ;
#835 = MECHANICAL_DESIGN_GEOMETRIC_PRESENTATION_REPRESENTATION (  '', ( #103 ), #743 ) ;
#836 = CARTESIAN_POINT ( 'NONE',  ( 0.000000000000000000, 0.02000000000000005246, -2.600000000000000089 ) ) ;
#837 = DIRECTION ( 'NONE',  ( -1.000000000000000000, 0.000000000000000000, -1.161645184805898242E-16 ) ) ;
#838 = FACE_OUTER_BOUND ( 'NONE', #403, .T. ) ;
#839 = DIRECTION ( 'NONE',  ( 0.000000000000000000, -1.000000000000000000, 0.000000000000000000 ) ) ;
#840 = EDGE_LOOP ( 'NONE', ( #395, #158, #70, #750 ) ) ;
#841 = CARTESIAN_POINT ( 'NONE',  ( 7.500000000000000000, 0.02000000000000000042, -1.475000000000000311 ) ) ;
#842 = ADVANCED_FACE ( 'NONE', ( #696 ), #218, .T. ) ;
#843 = VECTOR ( 'NONE', #182, 1000.000000000000000 ) ;
#844 = ADVANCED_FACE ( 'NONE', ( #549 ), #620, .F. ) ;
#845 = DIRECTION ( 'NONE',  ( -1.000000000000000000, -0.000000000000000000, -1.161645184805898242E-16 ) ) ;
#846 = ORIENTED_EDGE ( 'NONE', *, *, #435, .F. ) ;
#847 = CARTESIAN_POINT ( 'NONE',  ( 7.399999999999998579, -1.530000000000000027, -2.008392021690037943 ) ) ;
#848 = CARTESIAN_POINT ( 'NONE',  ( 7.399999999999998579, -1.530000000000000027, -0.09999999999999976963 ) ) ;
#849 = VERTEX_POINT ( 'NONE', #626 ) ;
#850 = LINE ( 'NONE', #282, #90 ) ;
#851 = PLANE ( 'NONE',  #857 ) ;
#852 = EDGE_CURVE ( 'NONE', #108, #849, #27, .T. ) ;
#853 = ORIENTED_EDGE ( 'NONE', *, *, #764, .F. ) ;
#854 = VECTOR ( 'NONE', #592, 1000.000000000000000 ) ;
#855 = DIRECTION ( 'NONE',  ( 0.000000000000000000, 1.000000000000000000, 0.000000000000000000 ) ) ;
#856 = PLANE ( 'NONE',  #25 ) ;
#857 = AXIS2_PLACEMENT_3D ( 'NONE', #252, #306, #188 ) ;
#858 = VERTEX_POINT ( 'NONE', #292 ) ;
#859 = DIRECTION ( 'NONE',  ( 0.000000000000000000, 1.000000000000000000, 0.000000000000000000 ) ) ;
#860 = CARTESIAN_POINT ( 'NONE',  ( 0.000000000000000000, 0.02000000000000005246, -3.199999999999999734 ) ) ;
#861 = LINE ( 'NONE', #112, #611 ) ;
#862 = ORIENTED_EDGE ( 'NONE', *, *, #396, .F. ) ;
#863 = ORIENTED_EDGE ( 'NONE', *, *, #159, .F. ) ;
#864 = CARTESIAN_POINT ( 'NONE',  ( 0.000000000000000000, 0.000000000000000000, 0.000000000000000000 ) ) ;
#865 = CARTESIAN_POINT ( 'NONE',  ( 5.999999999999999112, -1.530000000000000027, -0.09999999999999993616 ) ) ;
#866 = CARTESIAN_POINT ( 'NONE',  ( 0.1000000000000000472, -1.530000000000000027, -5.099999999999999645 ) ) ;
#867 = ORIENTED_EDGE ( 'NONE', *, *, #790, .F. ) ;
#868 = ORIENTED_EDGE ( 'NONE', *, *, #38, .T. ) ;
#869 = ADVANCED_FACE ( 'NONE', ( #560 ), #475, .F. ) ;
#870 = CARTESIAN_POINT ( 'NONE',  ( 5.999999999999999112, -1.530000000000000027, -0.09999999999999993616 ) ) ;
#871 = FACE_OUTER_BOUND ( 'NONE', #577, .T. ) ;
#872 = VECTOR ( 'NONE', #537, 1000.000000000000000 ) ;
#873 = VERTEX_POINT ( 'NONE', #493 ) ;
#874 = CARTESIAN_POINT ( 'NONE',  ( 0.000000000000000000, -1.500000000000000000, 0.000000000000000000 ) ) ;
ENDSEC;
END-ISO-10303-21;
